<svg xmlns="http://www.w3.org/2000/svg" xmlns:xlink="http://www.w3.org/1999/xlink" width="1800" height="1200" overflow="visible"><style><![CDATA[.R{stroke:#4c4c4c}.S{stroke-width:.709}.T{stroke-linejoin:round}.U{stroke-miterlimit:22.9256}.V{fill:#2f3c4f}.W{fill:#b2b2b2}]]></style><path d="M0 0h1800v1200H0z" fill="#faaf40"/><g fill-rule="evenodd"><path d="M900 1103.66c307.66 0 558.6-50.57 558.6-112.58S1207.67 878.5 900 878.5s-558.6 50.57-558.6 112.58 250.94 112.58 558.6 112.58z" fill="#dea83c"/><ellipse transform="matrix(.9985 -.0552 .0552 .9985 -52.9815 50.4722)" cx="887.66" cy="984.84" rx="504.39" ry="73.07" fill="#d19e39"/><g class="V"><path d="M1380.15 1011.75H408.82c-7.83 0-14.52-4.92-16.92-11.7v14.75c0 5.96 7.14 15.3 16.96 15.3l971.75-.35c9.82 0 17.38-8.34 18.33-14.95.46-3.2 1.1-17.78-.1-20.1 0 9.47-8.86 17.08-18.68 17.08z"/><path d="M1379.73 1004.23H408.4c-7.83 0-14.52-4.92-16.9-11.7v14.75c0 9.46 8.03 17.2 17.85 17.2h971.33c9.82 0 17.85-7.74 17.85-17.2 0-3.24 1.1-17.8-.1-20.1.01 9.46-6 14.4-18.68 17.07z"/></g><path d="M391.5 992.52c2.4 6.8 9.1 11.7 16.9 11.7h971.33c13.36-2.96 18.68-7.6 18.68-17.07l-115.6-82.54c-5.45 10.54-586.46 2.12-784 2.44L391.5 992.52z" fill="#fafafa"/><g class="V"><path d="M1175.7 922.64c-13.17-3.26-142.13 1.03-273.9 1.02l-298.6-1.36c-6.77 6.17-28.42 28.94-36.26 38.77-.48 1.4.18 1.9 2.22 1.95l504.58 1.27 136.26-1.8c1.16-.2 2.07-.75 1.74-1.8-4.36-5.02-11.8-12.78-18.36-20.38-6.33-7.35-11.74-14.56-17.68-17.66z"/><path d="M1203.17 954.76c-1-2.32-1.52-3.46-3.25-4.95-1-.6-6.38-.35-12.06-.32-6.43.03-13.3-.1-15.74-.1-.84.06-1.1.38-.83.65.5.8 2.52 4.6 3.3 5.14 1.6.42 9.25.06 16.45.1 6.2.04 12.1.12 12.14-.53zm-17.93-7.1c6.13.04 11.95.12 11.97-.52-.97-2.28-1.5-3.4-3.2-4.87-1-.58-6.3-.34-11.9-.32-6.34.03-13.13-.1-15.52-.1-.83.06-1.08.37-.82.64.5.8 2.48 4.52 3.24 5.05 1.58.42 9.13.07 16.23.12zm-6.22-7.58c6.2.04 12.07.1 12.1-.48-.98-2.1-1.5-3.13-3.24-4.48-1-.53-6.36-.3-12-.3-6.4.02-13.25-.1-15.67-.1-.84.05-1.1.34-.83.6.5.73 2.5 4.16 3.27 4.64 1.6.4 9.22.07 16.4.1zm-5.92-6.88c6.2.04 12.06.1 12.1-.48-.98-2.1-1.5-3.12-3.24-4.47-1-.53-6.35-.32-12-.3-6.4.02-13.25-.1-15.67-.1-.84.05-1.08.34-.83.6.5.73 2.5 4.16 3.27 4.64 1.6.37 9.22.05 16.38.1zm-6.02-6.63c6.04.04 11.78.1 11.8-.48-.95-2.1-1.47-3.12-3.16-4.48-.98-.53-6.2-.3-11.72-.3-6.25.02-12.94-.1-15.3-.1-.82.05-1.06.34-.8.6.5.73 2.45 4.16 3.2 4.64 1.55.4 9 .06 16 .1zm-23.88-.67c1.5-.46.17-1.95-.18-2.58-.5-.92-.48-1.43-1.65-2.23-2.32-.5-17.4-.07-30.45-.05-14.8.03-30.62-.1-36.2-.08-1.87.14-.73 5.17 1.4 5.25 3.68.36 21.32.24 37.88.28 4.1 0 25.7.48 29.2-.6zm2.24 1.87c-1.67-.5-12.58-.07-22.02-.05-10.7.03-22.14-.1-26.17-.08-1.35.13-.53 5.13 1 5.2 2.66.36 15.42.24 27.4.28 2.97.01 18.38.75 21.15-.27 1.16-.43.1-2.24-.16-2.86-.38-.92-.35-1.42-1.2-2.2zm5.43 7.27c-2.63-.6-19.74-.08-34.56-.06-16.8.03-34.75-.1-41.07-.1-2.12.16-.83 5.96 1.6 6.04 4.17.42 24.2.27 43 .33 4.66.01 29.16.56 33.15-.67 1.7-.53.2-2.25-.2-2.98-.6-1.06-.56-1.64-1.9-2.56zm-31.53 7.46c-2.07-.6-15.56-.08-27.24-.06-13.24.03-27.4-.1-32.38-.1-1.68.16-.66 5.96 1.25 6.04 3.3.42 19.07.27 33.9.32 3.67.01 22.74.88 26.17-.32 1.44-.5.1-2.6-.2-3.33-.48-1.05-.44-1.63-1.5-2.55zm7.5.56c.56.8 2.73 4.6 3.57 5.14 1.73.42 10.02.06 17.82.1 6.73.04 13.12.12 13.15-.53-1.07-2.32-1.64-3.46-3.53-4.95-1.1-.6-6.9-.35-13.06-.32-6.97.03-14.42-.1-17.05-.1-.9.06-1.17.38-.9.65zm24 7.22c-6.97.03-14.42-.1-17.05-.1-.92.05-1.18.37-.9.65.56.8 2.73 4.6 3.56 5.14 1.73.42 10.02.06 17.82.1 6.73.04 13.13.12 13.15-.53-1.06-2.32-1.64-3.46-3.52-4.96-1.1-.6-6.92-.35-13.06-.32zm-23.68 5.78c-1.07-2.32-1.64-3.46-3.53-4.95-1.1-.6-6.92-.35-13.06-.32-6.97.03-14.42-.1-17.05-.1-.92.05-1.18.38-.9.65.55.8 2.72 4.6 3.56 5.14 1.73.42 10.02.06 17.82.1 6.74.04 13.13.12 13.16-.53zm-39.7.57c-.23-1.5-1.35-4.24-2.6-5.54-1.48-.6-12.26-.1-20.6-.07-9.43.03-16.93-.36-20.48-.35-1.24.06-1.9.36-1.82.82.6 1.07 1.7 4.7 2.84 5.22 2.34.42 13.56.06 24.12.1 9.1.05 18.5.46 18.54-.2zm-52.03-.48c.15-1.82.05-3.2-1-4.77-1.1-.6-7.86-.3-14-.28-6.96.03-11.63-.1-14.25-.08-.92.05-1.45.44-1.5.9.37 1.02.2 3.94 1.05 4.48 1.73.42 9.48.3 17.75.14 6.72-.13 11.95.28 11.98-.38zm-14.7-8.37c1.73.42 9.48.3 17.75.14 6.73-.13 11.96.27 12-.38.15-1.82.05-3.2-1-4.77-1.1-.6-7.86-.3-14-.28-6.97.03-11.63-.1-14.26-.08-.92.06-1.45.45-1.5.9.36 1.02.2 3.94 1.04 4.48zm15.7-7.52c1.73.42 9.5.3 17.75.14 6.72-.13 11.96.27 12-.38.14-1.82.05-3.2-1-4.77-1.1-.6-7.86-.3-14-.28-6.97.03-11.63-.1-14.26-.08-.92.05-1.45.44-1.5.9.36 1.02.2 3.95 1.04 4.48zm26-7.06c1.73.42 9.48.3 17.75.14 6.73-.13 11.96.27 12-.38.15-1.82.05-3.2-1-4.77-1.1-.6-7.85-.3-14-.28-6.97.03-11.63-.1-14.26-.08-.92.05-1.45.44-1.5.9.36 1.02.2 3.95 1.04 4.48zm-7.83-7.08c6.73-.13 11.96.27 12-.38.14-1.82.05-3.2-1-4.77-1.1-.6-7.85-.3-14-.28-6.97.03-11.63-.1-14.25-.08-.92.06-1.45.45-1.5.9.37 1.02.2 3.94 1.05 4.48 1.72.4 9.48.3 17.74.14zm1.48 2.08c-1.1-.6-7.86-.3-14-.28-6.97.03-11.63-.1-14.26-.08-.9.06-1.45.45-1.5.9.37 1.02.2 3.94 1.04 4.48 1.73.42 9.48.3 17.75.14 6.73-.13 11.96.27 12-.38.15-1.82.05-3.22-1-4.77zm-25.6-2.44c.15-1.82.05-3.2-1-4.77-1.1-.6-7.86-.3-14-.28-6.97.03-11.63-.1-14.26-.08-.92.06-1.45.45-1.5.9.37 1.02.2 3.94 1.05 4.48 1.73.42 9.48.3 17.74.14 6.74-.13 11.98.27 12-.38zm-13.55 7c.14-1.82.05-3.2-1.02-4.77-1.1-.6-7.85-.3-14-.28-6.97.03-11.63-.1-14.26-.08-.92.06-1.45.45-1.5.9.37 1.02.2 3.94 1.05 4.48 1.73.42 9.48.3 17.75.14 6.73-.14 11.97.27 12-.38zm-2.27 2.3c-6.97.03-11.63-.1-14.26-.1-.92.06-1.45.45-1.5.9.37 1.02.2 3.94 1.04 4.48 1.73.42 9.5.3 17.75.14 6.73-.13 11.96.27 12-.38.14-1.82.05-3.2-1-4.77-1.1-.58-7.86-.3-14-.27zm-3.56 7.64c-1.1-.6-7.86-.3-14-.28-6.97.03-11.63-.1-14.26-.08-.92.05-1.45.44-1.5.9.37 1.02.2 3.94 1.04 4.48 1.74.4 9.5.3 17.75.14 6.73-.13 11.96.27 12-.38.15-1.82.05-3.2-1-4.77zm-16.38 8.43c-1.1-.6-7.86-.3-14-.28-6.96.03-11.63-.1-14.26-.08-.9.05-1.45.44-1.5.9.37 1.02.2 3.94 1.05 4.48 1.73.42 9.5.3 17.75.14 6.73-.13 11.96.27 12-.38.14-1.8.04-3.2-1.02-4.77zm-38.04 5.57c3.55-.02.64-5.48-1.67-6.04-39.58-.02-91.24.12-117.55-.04-40.34-.24-84.86-.45-91.8.02-1-.02-1.36 1.97-1.82 3.4-.7 2.22.43 2.68 6.8 2.6l77.5-.1 128.55.14zm-12.55-8.75c1.74.42 9.5.3 17.75.14 6.72-.13 11.96.27 12-.38.15-1.82.05-3.2-1-4.77-1.1-.6-7.86-.3-14-.28-6.97.03-11.63-.1-14.26-.08-.92.05-1.45.45-1.5.9.36 1.02.2 3.94 1.04 4.48zm17.3-7.77c1.74.4 9.5.3 17.75.14 6.72-.13 11.96.27 12-.38.14-1.82.05-3.2-1-4.77-1.1-.6-7.86-.3-14-.28-6.97.03-11.63-.1-14.25-.08-.92.06-1.45.45-1.5.9.37 1.02.2 3.94 1.04 4.48zm5-6.7c6.73-.13 11.96.27 12-.38.14-1.82.05-3.2-1-4.77-1.1-.6-7.86-.3-14-.28-6.97.03-11.63-.1-14.25-.08-.92.05-1.45.45-1.5.9.37 1.02.2 3.94 1.04 4.48 1.72.42 9.48.3 17.74.14zm-1.64-7.24c1.73.42 9.5.3 17.75.14 6.73-.13 11.96.27 12-.38.15-1.82.05-3.2-1-4.77-1.1-.6-7.86-.3-14-.28-6.96.03-11.63-.1-14.25-.08-.92.06-1.45.45-1.5.9.36 1.02.2 3.94 1.03 4.48zm-6.63-.23c.15-1.82.05-3.2-1-4.77-1.1-.6-7.86-.3-14-.28-6.97.03-11.62-.1-14.25-.08-.92.06-1.45.45-1.5.9.37 1.02.2 3.94 1.05 4.48 1.73.42 9.48.3 17.75.14 6.7-.13 11.94.27 11.97-.38zm-16.1 6.93c.15-1.82.05-3.2-1-4.77-1.1-.6-7.86-.3-14-.28-6.97.03-11.63-.1-14.26-.08-.92.06-1.45.45-1.5.9.37 1.02.2 3.94 1.04 4.48 1.73.42 9.48.3 17.75.14 6.72-.14 11.96.27 12-.38zm-31.9-6.96c6.72-.13 11.96.27 12-.38.14-1.82.05-3.2-1-4.77-1.1-.6-7.86-.3-14-.28-6.97.03-11.63-.1-14.25-.08-.92.06-1.45.45-1.5.9.37 1.02.2 3.94 1.05 4.48 1.72.4 9.47.3 17.73.14zm-25.7.17c.84-.54.68-3.46 1.04-4.48-.06-.44-.58-.83-1.5-.9-2.62-.01-7.3.1-14.25.08-6.15-.03-12.92-.3-14 .28-1.06 1.56-1.16 2.95-1 4.77.03.65 5.26.25 12 .38 8.25.17 16 .28 17.74-.14zm-36.14-.48c.84-.54.68-3.46 1.04-4.48-.05-.44-.58-.84-1.5-.9-2.62-.01-7.3.1-14.25.08-6.15-.03-12.9-.3-14 .28-1.06 1.56-1.16 2.95-1 4.77.03.65 5.26.25 12 .38 8.26.17 16 .28 17.74-.14zm-36.58.32c.84-.54.68-3.46 1.04-4.48-.05-.45-.6-.83-1.5-.9-2.63-.01-7.3.1-14.26.08-6.15-.02-12.92-.3-14 .28-1.06 1.56-1.16 2.95-1 4.77.03.65 5.26.25 12 .38 8.26.16 16.02.27 17.75-.14zm-35.42.08c.83-.54.68-3.46 1.04-4.48-.05-.44-.6-.83-1.5-.9-2.63-.01-7.3.1-14.25.08-6.15-.03-12.9-.3-14 .28-1.06 1.56-1.16 2.95-1 4.77.03.65 5.26.25 12 .38 8.25.16 16 .28 17.74-.14zm-37.72.08c.83-.54.68-3.46 1.04-4.48-.06-.44-.58-.83-1.5-.9-2.63-.01-7.28.1-14.25.08-6.15-.03-12.92-.3-14 .28-1.06 1.56-2.77 2.95-2.62 4.77.03.65 6.87.25 13.6.38 8.27.17 16.02.28 17.75-.14zm.46 1.56c-6.15-.03-12.92-.3-14 .28-1.06 1.56-1.16 2.95-1.02 4.77.03.65 5.26.25 12 .38 8.26.16 16.02.27 17.75-.14.83-.54.68-3.46 1.04-4.48-.06-.45-.6-.83-1.5-.9-2.6-.01-7.27.1-14.24.08zm6.57 7.36c-6.15-.03-12.92-.3-14 .28-1.06 1.56-1.16 2.95-1.02 4.77.03.65 5.26.25 12 .38 8.26.16 16 .28 17.75-.14.84-.54.67-3.46 1.04-4.48-.05-.44-.58-.83-1.5-.9-2.62-.01-7.28.1-14.25.08zm17.05 7.6c-6.15-.03-12.92-.3-14 .28-1.06 1.56-1.16 2.95-1.02 4.77.03.65 5.26.25 12 .38 8.26.16 16.02.27 17.75-.14.84-.54.68-3.46 1.04-4.48-.06-.44-.6-.83-1.5-.9-2.63-.02-7.3.1-14.25.08zm25.3.2c-1.06 1.56-1.16 2.95-1 4.77.03.65 5.26.25 12 .38 8.26.16 16.02.27 17.75-.14.83-.54.67-3.46 1.04-4.48-.05-.44-.58-.83-1.5-.9-2.63-.01-7.3.1-14.25.08-6.16-.02-12.93-.3-14.02.28zm-6.88-2.2c8.26.16 16.02.27 17.74-.14.84-.54.68-3.46 1.05-4.48-.06-.44-.6-.83-1.5-.9-2.63-.01-7.3.1-14.26.08-6.15-.03-12.9-.3-14 .28-1.06 1.56-1.16 2.95-1 4.77.03.65 5.26.25 12 .38zm-7.77-7.44c8.26.16 16.02.27 17.74-.14.84-.54.68-3.46 1.05-4.48-.05-.44-.6-.83-1.5-.9-2.63-.01-7.3.1-14.26.08-6.14-.02-12.9-.3-14 .28-1.06 1.56-1.16 2.95-1 4.77.03.65 5.26.25 12 .38zm27.67-4.9c-1.06 1.56-1.16 2.95-1 4.77.03.65 5.26.25 12 .38 8.26.16 16.02.27 17.75-.14.84-.54.68-3.46 1.04-4.48-.05-.44-.58-.83-1.5-.9-2.63-.01-7.3.1-14.25.08-6.16-.02-12.93-.3-14.02.28zm21.5 6.82c-6.15-.02-12.9-.3-14 .28-1.06 1.56-1.16 2.95-1 4.77.03.65 5.26.24 12 .38 8.26.16 16.02.27 17.75-.14.84-.53.68-3.46 1.04-4.48-.05-.45-.58-.84-1.5-.9-2.63-.01-7.3.1-14.26.08zm18.67 7.26c-6.15-.02-12.92-.3-14 .28-1.06 1.56-1.16 2.95-1 4.77.03.65 5.26.25 12 .38 8.26.16 16.02.27 17.75-.14.84-.54.67-3.46 1.04-4.48-.05-.45-.6-.83-1.5-.9-2.64-.01-7.3.1-14.26.08zm5.85-7.14c-1.06 1.56-1.16 2.95-1.02 4.77.03.65 5.26.25 12 .38 8.27.16 16.02.27 17.75-.14.84-.54.68-3.46 1.04-4.48-.05-.44-.58-.83-1.5-.9-2.63-.02-7.3.1-14.26.08-6.15-.03-12.9-.3-14 .28zm-10.72-2.36c.03.65 5.26.25 12 .38 8.26.16 16 .27 17.75-.14.84-.54.68-3.46 1.04-4.48-.05-.44-.6-.83-1.5-.9-2.63-.01-7.3.1-14.26.08-6.15-.02-12.9-.3-14 .28-1.07 1.56-1.17 2.96-1.02 4.77zm44.33 9.5c-6.97.03-11.63-.1-14.26-.08-.92.05-1.45.44-1.5.9.37 1.02.2 3.94 1.05 4.48 1.73.4 9.5.3 17.75.14 6.73-.13 11.96.27 12-.38.14-1.82.05-3.2-1.02-4.77-1.1-.58-7.85-.3-14-.28zm3.53-2.14c1.73.42 9.48.3 17.75.14 6.73-.13 11.96.27 12-.38.14-1.82.04-3.2-1.02-4.77-1.1-.6-7.85-.3-14-.28-6.97.03-11.63-.1-14.25-.08-.92.05-1.45.44-1.5.9.36 1.02.2 3.95 1.04 4.48zm-9.66-7.36c1.73.42 9.5.3 17.75.14 6.73-.13 11.96.27 12-.38.14-1.82.05-3.2-1-4.77-1.1-.6-7.86-.3-14-.28-6.96.03-11.63-.1-14.26-.08-.9.06-1.45.45-1.5.9.36 1.02.2 3.94 1.04 4.48zm29.54 10.4c.37 1.02.2 3.94 1.05 4.48 1.73.42 9.48.3 17.75.14 6.73-.13 11.96.27 12-.38.14-1.82.05-3.2-1-4.77-1.1-.6-7.86-.3-14-.28-6.97.03-11.63-.1-14.25-.08-.93.06-1.46.45-1.52.9zm18.1-7.52c.37 1.02.2 3.94 1.05 4.48 1.73.42 9.5.3 17.75.14 6.73-.13 11.96.27 12-.38.14-1.82.04-3.2-1-4.77-1.1-.6-7.86-.3-14-.28-6.97.03-11.63-.1-14.26-.08-.92.06-1.45.45-1.5.9zm-187.3 20.12c.84-.54.68-3.46 1.05-4.48-.05-.44-.6-.83-1.5-.9-2.63-.01-7.3.1-14.25.08-6.15-.03-12.92-.3-14 .28-1.06 1.56-1.16 2.95-1 4.77.03.65 5.26.25 12 .38 8.24.16 16 .27 17.73-.14zm-27.32-8.27c.03.65 5.27.25 12 .38 8.26.16 16 .27 17.75-.14.84-.54.68-3.46 1.04-4.48-.05-.44-.6-.83-1.5-.9-2.63-.01-7.3.1-14.26.08-6.15-.02-12.92-.3-14 .28-1.07 1.56-1.16 2.95-1 4.77zm-3.84-7.1c8.26.16 16 .27 17.74-.14.84-.54.68-3.46 1.04-4.48-.05-.45-.6-.83-1.5-.9-2.63-.01-7.3.1-14.26.08-6.15-.03-12.9-.3-14 .28-1.06 1.56-1.16 2.95-1 4.77.04.65 5.27.24 12 .38zm-4.43-6.98c8.26.16 16.02.27 17.75-.14.84-.54.68-3.46 1.04-4.48-.06-.44-.6-.83-1.5-.9-2.63-.01-7.3.1-14.25.08-6.15-.03-12.92-.3-14 .28-1.06 1.55-1.16 2.95-1 4.77.03.65 5.26.24 12 .38zm-15.33-7.46c8.26.16 16 .27 17.75-.14.84-.54 2.03-3.55 2.4-4.56-.06-.44-.78-.6-1.7-.67l-15.4-.05c-6.15-.03-11.1-.26-12.2.32-1.06 1.56-2.97 2.9-2.83 4.73.04.64 5.27.24 12 .37zm-18.6.2c.84-.54 2.03-3.55 2.4-4.56-.06-.44-.78-.6-1.7-.67l-15.4-.05c-6.15-.03-11.1-.26-12.2.32-1.06 1.56-2.98 2.9-2.83 4.73.03.65 5.26.25 12 .38 8.27.16 16.02.27 17.75-.15zm-.2 1.83c-6.15-.03-12.92-.3-14 .28-1.06 1.55-1.16 2.95-1 4.77.03.65 5.26.25 12 .38 8.26.16 16 .27 17.74-.14.84-.54.68-3.46 1.04-4.48-.05-.44-.58-.83-1.5-.9-2.62-.02-7.28.1-14.25.08zm4.27 7.17c-6.15-.03-12.9-.3-14 .28-1.06 1.56-1.16 2.95-1 4.77.03.65 5.26.25 12 .38 8.27.16 16.02.27 17.75-.14.84-.54.68-3.46 1.04-4.48-.06-.44-.58-.83-1.5-.9-2.63-.01-7.3.1-14.26.08zm14.65 6.95c-6.15-.03-12.92-.3-14 .28-1.06 1.55-1.16 2.95-1 4.77.03.65 5.26.25 12 .38 8.26.16 16 .27 17.75-.14.84-.54.67-3.46 1.04-4.48-.06-.44-.6-.83-1.5-.9-2.63-.02-7.28.1-14.25.08zm-3.35 8.1c-6.15-.02-12.9-.3-14 .28-1.07 1.56-1.16 2.95-1 4.77.03.65 5.26.25 12 .38 8.26.16 16.02.27 17.75-.15.84-.54.68-3.46 1.04-4.48-.06-.44-.6-.83-1.5-.9l-14.25.1zm-26.34 5.38c.84-.47.68-3.02 1.04-3.92-.05-.4-.6-.73-1.5-.78-2.62-.01-7.28.1-14.25.07-6.15-.02-12.92-.27-14 .24-1.06 1.36-2.5 2.66-2.36 4.25.03.57 6.6.14 13.34.26 8.26.15 16 .25 17.75-.12zm-38.12.1c1.16-.48 2.78-3.14 3.3-4.05-.07-.4-1.07-.55-2.34-.6l-21.2-.05c-8.47-.02-15.28-.24-16.78.28-1.46 1.38-4.1 2.58-3.9 4.2.04.58 7.24.22 16.5.34 11.37.15 22.04.24 24.43-.13zm-4.88-8.46l47.16.04c2.18-.48 1.9-3.15 2.85-4.06-.15-.4.32-.7-2.07-.76l-40.07-.05c-16-.02-31.98-.7-34.82-.18-1.22 1.24-2.55 2.2-4.25 4.67.1.58 13.7.22 31.2.34zm-.02-7.37l34.96.04c1.62-.48 1.4-3.15 2.12-4.05-.1-.4.24-.7-1.53-.76l-29.7-.05c-11.85-.02-24.1-.64-26.2-.12-1.44.78-2.35 2.1-3.5 4.6.05.58 10.88.22 23.85.34zm1.44-6.76c12.84.14 25.5.4 28.2.04 1.3-.48 1.13-3.15 1.7-4.06-.1-.4.2-.7-1.24-.76l-23.94-.05c-9.55-.02-19.42-.63-21.12-.1-1.16.78-1.9 2.1-2.82 4.6.05.58 8.78.23 19.23.34zm-1-6.6c8.26.16 16.02.27 17.75-.14.84-.54 2.02-3.54 2.4-4.56-.05-.45-.78-.62-1.7-.67l-15.4-.06c-6.15-.03-11.1-.27-12.2.32-1.06 1.56-2.98 2.9-2.83 4.73.03.65 5.27.25 12 .38z"/></g><path d="M806.32 968.93h186.04c2.67 0 3.35 2.64 4.85 4.84l12.1 17.85c1.5 2.2-2.18 4.84-4.85 4.84H792.55c-2.66 0-6.47-2.73-4.84-4.84l13.77-17.85c1.63-2.1 2.18-4.84 4.84-4.84z" fill="#7f7f7f"/><g class="V"><path d="M508.85 388.66h759.5c10.37 0 18.86 7.7 18.86 17.1v476.92c0 9.4-8.5 17.1-18.86 17.1h-759.5c-10.37 0-18.86-7.7-18.86-17.1V405.76c0-9.4 8.5-17.1 18.86-17.1h0zm718.27-8.2h0-718.5c-16.5 0-29.98 12.28-29.98 27.3v471.7c0 15 13.5 27.3 29.98 27.3h757.66c16.5 0 29.98-12.28 29.98-27.3v-471.7c0-15-13.5-27.3-29.98-27.3h-39.17z"/><path d="M1263.9 413.64l-.17 463.7-752.32.18.17-463.7 752.32-.18zM490 735.4h0v147.3c0 9.4 8.5 17.1 18.86 17.1h759.5c10.37 0 18.86-7.7 18.86-17.1V405.76c0-9.4-8.5-17.1-18.86-17.1h-759.5c-10.37 0-18.86 7.7-18.86 17.1V735.4z"/></g><path d="M511.5 413.73h752.32v463.7H511.5z" fill="#d91c5c"/><path d="M1266.3 906.74H508.63c-4.66 0-9.08-.98-13.03-2.73 3.47 4.14 8.65 6.78 14.42 6.78h759.5c7.26 0 13.48-4.86 16.63-10.95-5.3 4.3-12.27 6.9-19.87 6.9z" fill="#7f7f7f"/><path d="M807.3 970.42l183.6.24c2.6 0 2.96 2.16 4.4 4l9.7 15.74c1.46 1.85-1.65 3.74-4.25 3.74H794.5c-2.6 0-5.55-2.03-3.96-3.8l11.84-15.5c1.42-1.87 2.33-4.44 4.92-4.43zm111.4-825.3l-1.92 60.35c-.56 8.02-5.74 13.08-14 12.8-8.26-.26-12.98-5.67-13.03-13.68l2.9-90.8c.62-8.9 7.22-14.03 16.05-13.75 8.6.27 16.35 5.7 16.4 14.78l-1.4 44.3 3.76-.3 1.4-43.9c-.04-11.12-9.37-18.22-20.04-18.56-10.87-.34-19.18 6.37-19.9 17.28l-2.9 90.9c.03 10.02 6.35 17.1 16.65 17.44 10.3.33 17.17-6.33 17.84-16.34l1.93-60.4-3.75-.13zm-33.15 17.08l.58-18.13-3.75-.1-.6 18.55z" class="V"/><path d="M1143.7 877.5l39.5-708.94-558.04-31.1L583.9 877.5z" fill="#ccc"/><path d="M1170.3 877.5l-3.96-721.6-551.77 3.03 3.94 718.56z" fill="#dedede"/><path d="M1135.38 143.93l-539.4 42 53.84 691.58h542.68z" fill="#fafafa"/><g fill="#ededed" class="R S T U"><use xlink:href="#B"/><use xlink:href="#B" x="2.93" y="37.6"/><path d="M651.874 479.563l163.448-12.722 2.926 37.597L654.8 517.16z"/><use xlink:href="#B" x="8.782" y="112.803"/><use xlink:href="#B" x="11.702" y="150.393"/><path d="M660.65 592.355L824.1 579.633l2.926 37.597-163.448 12.722z"/><use xlink:href="#B" x="17.548" y="225.595"/><use xlink:href="#B" x="20.486" y="263.173"/></g><g fill="#edeaea" class="R S T U"><use xlink:href="#C"/><use xlink:href="#C" x="-2.942" y="-37.58"/><use xlink:href="#C" x="-5.854" y="-75.183"/><use xlink:href="#C" x="-8.784" y="-112.784"/><use xlink:href="#C" x="-11.71" y="-150.39"/><path d="M815.32 466.848L994.65 452.9l2.926 37.597-179.33 13.958z"/><use xlink:href="#C" x="-17.554" y="-225.568"/><use xlink:href="#C" x="-20.494" y="-263.16"/></g><g class="W R S T U"><use xlink:href="#D"/><use xlink:href="#D" x="2.926" y="37.612"/><use xlink:href="#D" x="5.859" y="75.192"/><use xlink:href="#D" x="8.778" y="112.784"/><use xlink:href="#D" x="11.704" y="150.394"/><use xlink:href="#D" x="14.629" y="188.012"/><use xlink:href="#D" x="17.552" y="225.584"/><use xlink:href="#D" x="20.482" y="263.186"/><path d="M1012.204 678.472l126.38-9.837 2.775 35.653-126.38 9.837z"/><path d="M1014.983 714.122l126.38-9.837 2.775 35.653-126.38 9.837z"/></g><path d="M674.46 769.667l112.452-8.753.528 6.78-112.452 8.753zm115.697-9.027l12.612-.98.526 6.78-12.612.98zm17.903-1.34l50.24-3.9.528 6.78-50.24 3.9zm54.455-4.256l103.13-8.027.528 6.78-103.13 8.027zm-189.117 1.07l130.158-10.13.528 6.78-130.158 10.13zm137.85-10.744l63.748-4.962.528 6.78-63.748 4.962zm70.188-5.497l44.696-3.483.528 6.78-44.696 3.483zm-209.09 2.685l118.563-9.228.528 6.78-118.563 9.228zm121.705-9.473l12.213-.95.528 6.78-12.213.95zm17.338-1.33l48.624-3.785.528 6.78-48.624 3.785zm109.677-8.578l42.83-3.334.528 6.78-42.83 3.334zm47.97-3.758l5.135-.398.526 6.78-5.135.398zm-103.927 8.088l47.806-3.726.528 6.78-47.806 3.726z" fill="#f7c7b4"/><path d="M947.3 861.28l192.98-15.02.426 5.474-192.98 15.02zm-83.314 6.468l75.493-5.876.427 5.484-75.493 5.876zM809.45 877.5l48.64-3.8-.43-5.48-119 9.27zm134.38-26.957L1112.8 837.4l.426 5.474-168.982 13.152zm-107.3 8.33l95.792-7.456.427 5.484-95.792 7.456zm-150.658 11.734l141.016-10.976.426 5.474-141.016 10.976zm251.673-30.596l186.4-14.507.426 5.474-186.4 14.507zm-44.427 3.403l36.53-2.843.426 5.474-36.53 2.843zm-208.058 16.21l21.286-1.66.427 5.484-21.286 1.66zm28.465-2.194l165.392-12.873.427 5.484-165.392 12.873zM968.9 826.546l180.896-14.08.426 5.474-180.896 14.08zm-70.2 5.424l60.897-4.74.426 5.474-60.897 4.74zm-214.493 16.696l52.542-4.1.427 5.483-52.542 4.1zm66.527-5.178L772 841.83l.427 5.484-21.286 1.66zm-47.297-7.308l148.862-11.586.426 5.474-148.862 11.586zm153.753-11.984l18.953-1.475.426 5.474-18.953 1.475zm26.926-2.073l75.493-5.876.426 5.474-75.493 5.876zm81.817-6.37l154.984-12.063.427 5.484-154.984 12.063z" fill="#ccc"/><g class="W"><path d="M656.31 424.7l63.16-4.916.792 10.18-63.16 4.916z"/><path d="M719.452 419.803l29.212-2.274.792 10.18-29.212 2.274zm32.165-2.513l46.68-3.633.792 10.18-46.68 3.633z"/></g><path d="M779.515 841.3l34.895-2.716.426 5.474-34.895 2.716zm55.63-4.338l51.256-4 .426 5.474-51.256 4zM1111.9 326.5l-469.1 36.52 1.06 13.62 469.1-36.52zm1.32 17.03l-469.1 36.53 1.06 13.6 469.1-36.52zm-360.4-6.45l-111.37 8.67 1.06 13.62 469.1-36.52-1.06-13.62L876 327.5z" fill="#ccc"/><path d="M905.45 286.84l202.13-15.74-7.28-93.44-239.28 18.63 7.28 93.45z" class="W"/><path d="M878.617 225.253l89.47-6.964.517 6.64-89.47 6.964zm94.743-7.368l43.818-3.4.517 6.64-43.818 3.4zm48.223-3.772l30.728-2.392.517 6.64-30.728 2.392zM879.646 238.53l81.495-6.343.517 6.64-81.495 6.343zm83.654-6.484l8.395-.654.517 6.64-8.395.654zm11.95-1l33.42-2.605.517 6.64-33.42 2.605zm37.435-2.85l67.367-5.243.516 6.63-67.367 5.243zm70.885-5.52l3.53-.274.516 6.64-3.53.274zm-72.72 18.678l77.297-6.016.517 6.64-77.297 6.016zm-10.887.797l8.674-.676.517 6.63-8.674.676zm-38.193 3l34.536-2.688.517 6.64-34.536 2.688zm-73.8 5.766l70.887-5.517.517 6.64-70.887 5.517zm-7.298.52l3.65-.284.515 6.63-3.65.284zm119.03 4.13l77.297-6.016.517 6.64-77.297 6.016zm-49.066 3.787l43.818-3.415.517 6.63-43.818 3.415zm-68.926 5.408l64.496-5.02.517 6.64-64.496 5.02z" class="V"/><g class="W"><path d="M659.125 461.1l59.7-4.647.792 10.18-59.7 4.647zm66.23-5.207l44.476-3.466.793 10.18-44.476 3.466zm-62.82 44.342l59.64-4.642.792 10.18-59.64 4.642zm2.835 36.385l59.7-4.647.792 10.18-59.7 4.647zm63.238-4.92l29.242-2.276.792 10.18-29.242 2.276zm32.184-2.513l46.74-3.638.792 10.18-46.74 3.638zm-92.51 44.82l28.584-2.225.792 10.18-28.584 2.225zm34.307-2.66l58.045-4.518.792 10.18-58.045 4.518zm61.013-4.747l6.002-.468.794 10.18-6.002.468zm-92.496 43.804l59.7-4.647.792 10.18-59.7 4.647zm59.73-4.662l32.76-2.55.792 10.18-32.76 2.55zm35.738-2.8l19.83-1.547.794 10.18-19.83 1.547zm-92.498 45.374l59.64-4.642.792 10.18-59.64 4.642zm63.185-4.954l29.212-2.274.792 10.18-29.212 2.274zm-60.323 41.313l59.7-4.653.793 10.18-59.7 4.653zm63.185-4.88l32.183-2.505.792 10.18-32.183 2.505z"/><path d="M772.316 677.282l46.74-3.638.792 10.18-46.74 3.638z"/></g><path d="M1057.92 394.187l50.618-3.94.792 10.18-50.618 3.94zm12.435 36.465l41.076-3.197.792 10.18-41.076 3.197zm4.25 36.45l39.67-3.088.792 10.18-39.67 3.088zm17.28 36.06l25.304-1.97.792 10.18-25.304 1.97zm2.99 38.72l25.304-1.97.792 10.18-25.304 1.97zm6.91 36.898l21.316-1.66.792 10.18-21.316 1.66zm-26.467 38.836l50.618-3.94.792 10.18-50.618 3.94zm13.146 36.45l40.38-3.143.792 10.18-40.38 3.143zm30.188 31.92l12.84-1 .792 10.18-12.84 1zm-56.432 41.896l72.143-5.615.792 10.18L1063 738.06z" class="V"/><path d="M988.202 659.912l14.108-1.1.793 10.18-14.108 1.1zm-16.02-35.472l27.248-2.118.8 10.18-27.248 2.118zm6.99-38.065l17.378-1.35.8 10.18-17.378 1.35zm-3.023-38.605l17.378-1.353.792 10.18-17.378 1.353zm-.144-37.474l14.636-1.14.792 10.18-14.636 1.14zm-13.03-35.784l24.845-1.936.793 10.18-24.845 1.936zm-5.813-36.968l27.727-2.158.792 10.18-27.727 2.158zM973.427 402l8.813-.686.792 10.18-8.813.686z" class="W"/><path d="M692.4 288.1l-51.25 4 .53 6.8 215.9-16.8-.53-6.8-107.95 8.4z" fill="#f7c7b4"/><path d="M1098.34 159.35L873.1 177.8l29.53 333.1 4.63-15.34 4.96 14.56 5.25-15.4 6.8 14.53 5.5-15.42 8.06 14.3 7.83-15.6 5.75 14.5 4.98-15.37 6.26 14.45 7.57-15.58 7.3 14.36 5.9-15.44 9.75 14.16 7.7-15.6 9.23 14.2 13-16.03 10.53 14.1 8.08-15.62 12.85 13.9 9.9-15.77 7.43 14.48 8.6-15.67 8.45 14.27 5-15.37 8.7 14.25 8.86-15.7 10.27 14.12 2.17-14.82 4.34 14.28z" class="V"/><path d="M1084.17 160.5l-219.13 17.96 28.14 316.93 4.53-14.6 4.8 13.84 5.13-14.65 6.57 13.8 5.38-14.67 7.82 13.6 7.65-14.86 5.56 13.78L945.5 477l6.07 13.73 7.4-14.84 7.07 13.66 5.75-14.7 9.46 13.46 7.53-14.85 8.95 13.5 12.68-15.28 10.2 13.4 7.9-14.88 12.48 13.2 9.65-15.02 7.2 13.76 8.4-14.93 8.2 13.57 4.88-14.64 8.45 13.54 8.65-14.94 9.96 13.42 2.13-14.1 4.2 13.58z" fill="#fff"/><g class="V"><path d="M902.244 292.67l98.404-8.046.512 6.26-98.404 8.046zm-1.514-17.9l71.396-5.867.514 6.26-71.396 5.867zm-1.454-17.82l98.394-8.086.514 6.26-98.394 8.086zm-1.416-17.784l98.404-8.046.512 6.26-98.404 8.046zm-2.47-29.653l163.9-13.502.216 2.62-163.9 13.502zm143.2 36.074l24.638-2.015.512 6.26-24.638 2.015z"/><use xlink:href="#E"/><use xlink:href="#E" x="4.383" y="53.442"/><path d="M908.348 367.08l98.404-8.046.512 6.26-98.404 8.046zm-1.505-17.863l71.396-5.867.514 6.26-71.396 5.867zm-1.413-17.777l98.404-8.046.512 6.26-98.404 8.046zm-1.536-17.814l98.394-8.076.514 6.26-98.394 8.076z"/><use xlink:href="#E" x="7.566" y="92.215"/><use xlink:href="#E" x="6.103" y="74.411"/><use xlink:href="#E" x="10.494" y="127.878"/><path d="M910.2 398.123l170.984-13.93.214 2.62-170.984 13.93zm-15.46-194.436l163.9-13.486.216 2.62-163.9 13.486zm138.67 205.398l43.137-3.54.844 10.286-43.137 3.54z"/></g><path d="M907.76 147.24l-1.92 60.35c-.56 8-5.75 13.08-14 12.8-8.26-.26-12.98-5.67-13.03-13.68l2.9-90.8c.62-8.9 7.22-14.03 16.05-13.75 8.6.27 16.35 5.7 16.4 14.78l-1.4 44.3 3.76-.3 1.4-43.9c-.04-11.12-9.37-18.22-20.04-18.56-10.87-.35-19.18 6.36-19.9 17.28l-2.9 90.9c.03 10.02 6.35 17.1 16.65 17.44 10.3.33 17.17-6.33 17.84-16.34l1.93-60.4-3.75-.12zm-33.16 17.1l.57-18.13-3.74-.12-.6 18.55z" fill="#c30"/></g><path d="M637.95 259.2l5.16-.38 13.06 14.8-1.14-15.67 5.52-.4L662.4 283l-4.76.35-13.5-15.28 1.18 16.18-5.52.4-1.84-25.45zm24.9 11.06v-.07c-.53-7.23 4.75-13.58 12.6-14.15s13.9 4.87 14.44 12.1l.01.07c.53 7.23-4.75 13.57-12.6 14.15-7.86.58-13.93-4.86-14.45-12.1zm21.2-1.54v-.07c-.32-4.36-3.78-7.77-8.3-7.44s-7.38 4.12-7.06 8.48l.01.07c.32 4.36 3.78 7.76 8.3 7.43 4.5-.32 7.37-4.1 7.05-8.47zm11.46-8.52l-7.74.57-.38-5.16 21.08-1.54.38 5.16-7.74.57 1.48 20.28-5.6.4-1.48-20.3zm19.06-6.75l5.16-.38 12.77 24.83-5.85.43-2.74-5.54-10.76.78-1.9 5.88-5.7.42 9.04-26.42zm6.98 14.54l-3.98-8-2.78 8.5 6.76-.5zm16.66-16.1l19.37-1.4.37 5.1-13.77 1 .4 5.42 12.14-.9.37 5.1-12.14.88.72 9.85-5.6.4-1.85-25.44zm20.47-1.5l5.6-.4 1.85 25.45-5.6.4-1.85-25.45zm8.16 21.27l3.02-4.2c2.43 1.72 4.9 2.75 7.82 2.54 2.3-.17 3.6-1.18 3.5-2.67l-.01-.07c-.1-1.42-1.03-2.08-5.36-2.86-5.22-.93-8.63-2.1-9-7.16v-.07c-.34-4.62 3.15-7.94 8.35-8.32 3.7-.27 6.96.66 9.7 2.55l-2.6 4.43c-2.37-1.4-4.65-2.18-6.8-2.03-2.14.16-3.2 1.22-3.1 2.46v.07c.12 1.67 1.26 2.14 5.73 2.94 5.26.97 8.3 2.6 8.63 7.04v.07c.37 5.05-3.28 8.17-8.77 8.57-3.84.28-7.82-.8-11.08-3.3zm19.6-10.42v-.07c-.53-7.23 4.5-13.56 12.3-14.13 4.8-.35 7.8 1.04 10.32 3.2l-3.26 4.37c-2.1-1.64-4.17-2.58-6.72-2.4-4.3.3-7.12 4.1-6.8 8.46l.01.07c.32 4.36 3.6 7.78 7.96 7.46 2.9-.2 4.6-1.5 6.47-3.47l3.83 3.34c-2.4 3-5.2 4.95-10.1 5.3-7.5.54-13.5-4.83-14.02-12.14zm32.1-15.4l5.16-.38 12.77 24.83-5.85.43-2.74-5.54-10.76.78-1.9 5.88-5.7.42 9.04-26.42zm6.98 14.55l-3.98-8-2.78 8.5 6.76-.5zm9.4-15.56l5.6-.4 1.48 20.36 12.7-.92.37 5.1-18.28 1.33-1.86-25.45z" fill="#f6921e"/><defs ><path id="B" d="M646.018 404.367l163.448-12.722 2.926 37.597-163.448 12.722z"/><path id="C" d="M829.954 654.818l179.33-13.958 2.926 37.597-179.33 13.958z"/><path id="D" d="M988.798 377.688l126.38-9.837 2.926 37.597-126.38 9.837z"/><path id="E" d="M1037.074 227.735l24.636-2.025.514 6.26-24.636 2.025z"/></defs></svg>